<?xml version="1.0" encoding="utf-8"?>
<svg version="1.1" height="27px" width="22.56px"
   xmlns:cc="http://web.resource.org/cc/" xmlns:dc="http://purl.org/dc/elements/1.1/" xmlns:inkscape="http://www.inkscape.org/namespaces/inkscape" xmlns:rdf="http://www.w3.org/1999/02/22-rdf-syntax-ns#" xmlns:sodipodi="http://inkscape.sourceforge.net/DTD/sodipodi-0.dtd" xmlns:svg="http://www.w3.org/2000/svg"
	 xmlns="http://www.w3.org/2000/svg" xmlns:xlink="http://www.w3.org/1999/xlink" x="0px" y="0px" viewBox="-206.5 -41.3 358 428.3"
	 style="enable-background:new -206.5 -41.3 358 428.3;" xml:space="preserve">
<path fill="#FFF" d="M-117.3,296.9l-89.2-89.3v-56.7c0-31.2,0.3-56.7,0.8-56.7s30.5,29.7,66.7,66c37,37,66.8,66,67.7,66
	c1.7,0,1.8-7.2,2-133.7L-69-41.3h42h42l0.3,133.2c0.2,126.1,0.3,133.2,2,133.2c1,0,30.5-28.8,67.2-65.5c36-36,65.8-65.5,66.2-65.5
	c0.4,0,0.8,25.5,0.8,56.7v56.7l-89.2,89.3c-49.1,49.1-89.5,89.3-89.8,89.3S-68.2,346-117.3,296.9z"/>
</svg>
