<?xml version="1.0" encoding="utf-8"?>
<svg width="25px" height="25px" version="1.1" id="Layer_1" xmlns="http://www.w3.org/2000/svg" xmlns:xlink="http://www.w3.org/1999/xlink" x="0px" y="0px"
	 viewBox="-78.7 -22 384 384" style="enable-background:new -78.7 -22 384 384;" xml:space="preserve">
<path d="M305.3,338.7L192,225.3c20.8-26,33.3-59.1,33.3-95.1c0-84.1-68.1-152.2-152-152.2c-84,0-152,68.2-152,152.2
	s68.1,152.2,152,152.2c36.2,0,69.4-12.7,95.5-33.8L282,362L305.3,338.7z M-22.9,226.6c-25.7-25.7-39.8-59.9-39.8-96.3
	S-48.5,59.7-22.9,34S37-6,73.3-6s70.5,14.2,96.2,39.9s39.8,59.9,39.8,96.3s-14.2,70.6-39.8,96.3c-25.7,25.7-59.9,39.9-96.2,39.9
	C37,266.5,2.8,252.3-22.9,226.6z"/>
</svg>
