<?xml version="1.0" encoding="utf-8"?>
<!-- Generator: Adobe Illustrator 19.0.0, SVG Export Plug-In . SVG Version: 6.00 Build 0)  -->
<svg version="1.1" width="100px" height="75px" xmlns="http://www.w3.org/2000/svg" xmlns:xlink="http://www.w3.org/1999/xlink" x="0px" y="0px"
	 viewBox="-143 -22 512 384" style="enable-background:new -143 -22 512 384;" xml:space="preserve">
<g>
	<path fill="#fff" d="M365.6,62.8c0-45-33.1-81.2-74-81.2C236.2-21,179.7-22,122-22c-3,0-6,0-9,0s-6,0-9,0c-57.6,0-114.2,1-169.6,3.6
		c-40.8,0-73.9,36.4-73.9,81.4c-2.5,35.6-3.6,71.2-3.5,106.8c-0.1,35.6,1,71.2,3.4,106.9c0,45,33.1,81.5,73.9,81.5
		c58.2,2.7,117.9,3.9,178.6,3.8c60.8,0.2,120.3-1,178.6-3.8c40.9,0,74-36.5,74-81.5c2.4-35.7,3.5-71.3,3.4-107
		C369.1,134.1,368,98.5,365.6,62.8z M64,267.9V71.4l145,98.2L64,267.9z"/>
</g>
</svg>
