<?xml version="1.0" encoding="UTF-8" standalone="no"?>
<!DOCTYPE svg  PUBLIC '-//W3C//DTD SVG 1.1//EN'  'http://www.w3.org/Graphics/SVG/1.1/DTD/svg11.dtd'>
<svg version="1.1" xmlns="http://www.w3.org/2000/svg">
<defs>
<font id="Formular-Italic" horiz-adv-x="681">
<font-face underline-position="-150" panose-1="2 0 0 0 0 0 0 0 0 0" bbox="-82 -220 1059 898" cap-height="714" font-family="Formular" underline-thickness="50" descent="-200" ascent="800" x-height="504" font-style="italic" unicode-range="U+0020-00FE" units-per-em="1000" slope="-10" font-weight="400"/>
<missing-glyph/>
<glyph horiz-adv-x="278" unicode=" " glyph-name="space"/>
<glyph horiz-adv-x="314" d="M238 714h88l-52 -295l-57 -230h-55l25 230zM209 0h-104l20 116h104z" unicode="!" glyph-name="exclam"/>
<glyph horiz-adv-x="396" d="M159 460l44 254h81l-44 -254h-81zM318 460l44 254h81l-44 -254h-81z" unicode='&quot;' glyph-name="quotedbl"/>
<glyph horiz-adv-x="595" d="M135 506h113l31 194h71l-31 -194h136l31 194h71l-31 -194h100v-68h-111l-27 -176h101v-68h-112l-31 -194h-72l31 194h-135l-31 -194h-72l31 194h-100v68h111l28 176h-102v68zM308 438l-27 -176h135l28 176h-136z" unicode="#" glyph-name="numbersign"/>
<glyph horiz-adv-x="628" d="M427 798h54l-16 -91q73 -15 120 -62.5t53 -120.5h-87q-6 42 -33 70t-67 36l-41 -233l37 -11q155 -49 155 -188q0 -94 -67 -152.5t-177 -58.5q-13 0 -21 1l-15 -86h-53l15 90q-87 13 -141.5 64t-60.5 140h87q15 -105 129 -126l47 263l-34 11q-148 44 -148 168 q0 89 61 144.5t161 57.5q6 0 15.5 -0.5t11.5 -0.5zM396 318l-45 -253q8 -1 23 -1q58 0 99 33t41 97q0 47 -24.5 74.5t-76.5 43.5zM251 516q0 -40 24 -62.5t70 -36.5l13 -4l40 224q-9 1 -21 1q-56 -2 -91 -34t-35 -88z" unicode="$" glyph-name="dollar"/>
<glyph horiz-adv-x="898" d="M274 0h-77l547 700h77zM463 562q0 -93 -49.5 -159.5t-135.5 -66.5q-63 0 -102 42.5t-39 108.5q0 94 49.5 160.5t135.5 66.5q63 0 102 -42.5t39 -109.5zM283 399q51 0 80.5 48t29.5 110q0 94 -77 94q-50 0 -79.5 -48.5t-29.5 -110.5q0 -93 76 -93zM881 213 q0 -93 -49.5 -159.5t-135.5 -66.5q-63 0 -102 42.5t-39 108.5q0 94 49.5 160.5t135.5 66.5q63 0 102 -42.5t39 -109.5zM701 50q51 0 80.5 48t29.5 110q0 94 -77 94q-50 0 -79.5 -48.5t-29.5 -110.5q0 -93 76 -93z" unicode="%" glyph-name="percent"/>
<glyph horiz-adv-x="704" d="M230 378l27 13l2 22q-55 70 -55 140q0 69 50.5 115t125.5 46t123 -41.5t48 -106.5q0 -66 -38.5 -104.5t-126.5 -84.5l141 -195q53 66 73 148h85q-28 -117 -109 -211l89 -119h-103l-38 52h-22q-85 -65 -192 -65q-99 0 -158 51.5t-59 138.5q0 73 39.5 123t97.5 78zM317 65 q83 0 152 59l-155 216l-40 -21q-97 -50 -97 -137q0 -56 38.5 -86.5t101.5 -30.5zM287 553q0 -40 37 -94l18 -26l47 25q39 21 59.5 44.5t20.5 59.5q0 37 -25.5 58t-63.5 21q-42 0 -67.5 -24t-25.5 -64z" unicode="&amp;" glyph-name="ampersand"/>
<glyph horiz-adv-x="237" d="M159 460l44 254h81l-44 -254h-81z" unicode="&apos;" glyph-name="quotesingle"/>
<glyph horiz-adv-x="300" d="M273 -141h-79q-97 150 -97 348q0 159 66 300t181 252h91q-124 -129 -191.5 -262.5t-67.5 -292.5q0 -179 97 -345z" unicode="(" glyph-name="parenleft"/>
<glyph horiz-adv-x="300" d="M136 759h79q97 -150 97 -348q0 -159 -66 -300t-181 -252h-91q124 129 191.5 262.5t67.5 292.5q0 179 -97 345z" unicode=")" glyph-name="parenright"/>
<glyph horiz-adv-x="473" d="M538 537l-169 -48l81 -133l-60 -40l-71 140l-122 -139l-50 43l126 133l-149 48l27 63l149 -58l19 168h70l-28 -168l163 56z" unicode="*" glyph-name="asterisk"/>
<glyph d="M352 320v218h73v-218h218v-73h-218v-216h-73v216h-217v73h217z" unicode="+" glyph-name="plus"/>
<glyph horiz-adv-x="258" d="M127 0h-50l20 116h104l-23 -135l-74 -96h-54l74 96z" unicode="," glyph-name="comma"/>
<glyph horiz-adv-x="371" d="M363 240h-272l13 75h273z" unicode="-" glyph-name="hyphen"/>
<glyph horiz-adv-x="258" d="M181 0h-104l20 116h104z" unicode="." glyph-name="period"/>
<glyph horiz-adv-x="405" d="M53 -141h-79l460 900h76z" unicode="/" glyph-name="slash"/>
<glyph horiz-adv-x="625" d="M113 246q0 206 83.5 337t221.5 131q97 0 157 -67t60 -192q0 -206 -83.5 -337t-221.5 -131q-97 0 -157 66.5t-60 192.5zM201 245q0 -86 36 -133t97 -47q56 0 99 37t67 96.5t35.5 125t11.5 132.5q0 86 -36 133t-97 47q-56 0 -99 -37t-67 -96.5t-35.5 -125t-11.5 -132.5z " unicode="0" glyph-name="zero"/>
<glyph horiz-adv-x="498" d="M58 0l13 78h164l93 530h-21l-160 -100l15 93l161 99h109l-110 -622h152l-14 -78h-402z" unicode="1" glyph-name="one"/>
<glyph horiz-adv-x="575" d="M217 507h-87q20 102 87.5 154.5t165.5 52.5q88 0 145.5 -49.5t57.5 -131.5q0 -44 -14.5 -84t-43 -75t-55 -59.5t-64.5 -54.5q-79 -62 -125 -95q-13 -10 -87 -65l-3 -22h347l-13 -78h-475l17 99l113 84q156 116 183 137q28 22 47 39t41 43t33.5 57.5t11.5 66.5 q0 52 -35.5 81t-91.5 29q-127 0 -155 -129z" unicode="2" glyph-name="two"/>
<glyph horiz-adv-x="568" d="M585 602l-200 -150l-4 -21q87 -6 131.5 -61t44.5 -131q0 -109 -72.5 -180.5t-189.5 -71.5q-101 0 -166 57.5t-65 151.5h87q5 -63 45 -97t106 -34q74 0 121 49.5t47 122.5q0 62 -36.5 96t-99.5 34q-36 0 -62 -6l16 94l193 147l5 22h-307l12 76h410z" unicode="3" glyph-name="three"/>
<glyph horiz-adv-x="605" d="M508 242h95l-14 -78h-94l-29 -164h-86l29 164h-341l17 100l381 436h123zM174 242h250l62 359h-21l-288 -337z" unicode="4" glyph-name="four"/>
<glyph horiz-adv-x="598" d="M607 624h-329l-48 -202h22q49 49 128 49q93 0 150 -57t57 -149q0 -129 -76 -203.5t-183 -74.5q-111 0 -173.5 60.5t-62.5 148.5h87q3 -63 43 -97t109 -34q68 0 118 51.5t50 142.5q0 64 -37 101t-102 37q-89 0 -143 -66h-88l91 369h400z" unicode="5" glyph-name="five"/>
<glyph horiz-adv-x="602" d="M625 547h-88q-17 89 -120 89q-75 0 -130.5 -68.5t-70.5 -170.5h22q59 59 151 59t151 -57.5t59 -144.5q0 -112 -70 -189.5t-187 -77.5q-99 0 -164 66.5t-65 192.5q0 62 10.5 124.5t34 125t58 110.5t87 78t116.5 30q88 0 142 -46t64 -121zM512 245q0 61 -38.5 97.5 t-104.5 36.5q-76 0 -120 -49t-44 -124q0 -64 37.5 -102.5t107.5 -38.5q77 0 119.5 53t42.5 127z" unicode="6" glyph-name="six"/>
<glyph horiz-adv-x="543" d="M595 602l-388 -602h-93l387 602l5 22h-347l13 76h441z" unicode="7" glyph-name="seven"/>
<glyph horiz-adv-x="611" d="M508 369l-4 -21q85 -54 85 -148q0 -95 -73 -154t-185 -59q-105 0 -173.5 53t-68.5 140q0 67 37.5 114.5t98.5 72.5l4 21q-69 46 -69 130q0 85 67.5 140.5t172.5 55.5q95 0 158.5 -49.5t63.5 -130.5q0 -56 -31.5 -100t-82.5 -65zM247 513q0 -53 39.5 -82t97.5 -29 q66 0 108.5 34t42.5 92q0 51 -40 80.5t-97 29.5q-66 0 -108.5 -34t-42.5 -91zM177 188q0 -57 45.5 -90t111.5 -33q74 0 120.5 37.5t46.5 100.5q0 60 -45 93t-113 33q-73 0 -119.5 -38t-46.5 -103z" unicode="8" glyph-name="eight"/>
<glyph horiz-adv-x="603" d="M101 154h88q17 -89 120 -89q75 0 130.5 68.5t70.5 170.5h-22q-59 -59 -151 -59t-151 57.5t-59 144.5q0 112 70 189.5t187 77.5q99 0 164 -66.5t65 -192.5q0 -62 -10.5 -124.5t-34 -125t-58 -110.5t-87 -78t-116.5 -30q-88 0 -142 46t-64 121zM214 456q0 -61 38.5 -97.5 t104.5 -36.5q76 0 120 49t44 124q0 64 -37.5 102.5t-107.5 38.5q-77 0 -119.5 -53t-42.5 -127z" unicode="9" glyph-name="nine"/>
<glyph horiz-adv-x="258" d="M181 0h-104l20 116h104zM243 388h-104l20 116h104z" unicode=":" glyph-name="colon"/>
<glyph horiz-adv-x="258" d="M127 0h-50l20 116h104l-23 -135l-74 -96h-54l74 96zM243 388h-104l20 116h104z" unicode=";" glyph-name="semicolon"/>
<glyph horiz-adv-x="677" d="M639 104v-76l-504 221v69l504 221v-76l-387 -169v-22z" unicode="&lt;" glyph-name="less"/>
<glyph horiz-adv-x="679" d="M641 221v-73h-506v73h506zM641 420v-73h-506v73h506z" unicode="=" glyph-name="equal"/>
<glyph horiz-adv-x="677" d="M135 28v76l388 168v22l-388 169v76l504 -221v-69z" unicode="&gt;" glyph-name="greater"/>
<glyph horiz-adv-x="546" d="M376 727q87 0 143.5 -48t56.5 -124q0 -71 -36.5 -119.5t-110.5 -94.5q-49 -31 -69.5 -55t-28.5 -70l-5 -27h-85l5 28q12 63 40.5 99t94.5 78q56 35 82.5 70t26.5 85q0 46 -32.5 75t-88.5 29q-62 0 -99.5 -34.5t-47.5 -98.5h-85q15 97 74.5 152t164.5 55zM305 0h-102 l20 116h101z" unicode="?" glyph-name="question"/>
<glyph horiz-adv-x="973" d="M735 -64l29 -50q-116 -76 -261 -76q-183 0 -291 110.5t-108 291.5q0 207 131 344.5t339 137.5q166 0 280 -97t114 -262q0 -122 -59.5 -210t-162.5 -88q-84 0 -110 57h-19q-53 -57 -129 -57q-75 0 -117.5 48t-42.5 133q0 102 59.5 174.5t154.5 72.5q38 0 66.5 -15 t39.5 -34h20l8 35h71l-42 -254l-3 -21q-2 -21 -2 -30q0 -52 57 -52q60 0 103.5 66t43.5 178q0 133 -93 216t-246 83q-171 0 -284 -118t-113 -306q0 -70 20 -131t59.5 -109.5t106.5 -77t153 -28.5q120 0 228 69zM503 102q59 0 98 51.5t39 131.5q0 67 -27 91t-70 24 q-59 0 -97 -55.5t-38 -125.5q0 -54 23 -85.5t72 -31.5z" unicode="@" glyph-name="at"/>
<glyph d="M568 0l-35 218h-309l-111 -218h-93l368 714h152l120 -714h-92zM429 622l-164 -322h255l-51 322h-40z" unicode="A" glyph-name="A"/>
<glyph horiz-adv-x="697" d="M600 381l-4 -22q78 -45 78 -140q0 -111 -77 -165t-197 -54h-309l125 714h292q85 0 141.5 -44t56.5 -120q0 -59 -29 -105t-77 -64zM292 634l-39 -223h204q70 0 113.5 30.5t43.5 96.5q0 50 -37 73t-89 23h-196zM194 80h208q79 0 129.5 35.5t50.5 109.5q0 54 -40 80.5 t-98 26.5h-205z" unicode="B" glyph-name="B"/>
<glyph horiz-adv-x="708" d="M611 203h95q-31 -98 -109.5 -157t-189.5 -59q-129 0 -211 82t-82 220q0 117 42 215.5t127 160.5t197 62q103 0 173.5 -54t86.5 -146h-93q-27 118 -171 118q-67 0 -120.5 -32t-85.5 -84.5t-48.5 -113t-16.5 -122.5q0 -99 54.5 -161.5t152.5 -62.5q75 0 125.5 36t73.5 98z " unicode="C" glyph-name="C"/>
<glyph horiz-adv-x="734" d="M91 0l125 714h216q145 0 228.5 -70.5t83.5 -218.5q0 -83 -22.5 -156.5t-68.5 -135t-124.5 -97.5t-181.5 -36h-256zM194 82h166q69 0 122.5 23.5t84.5 58.5t51.5 83t27.5 90.5t7 86.5q0 208 -220 208h-141z" unicode="D" glyph-name="D"/>
<glyph horiz-adv-x="646" d="M194 82h416l-13 -82h-506l125 714h491l-14 -82h-401l-40 -221h323l-14 -82h-322z" unicode="E" glyph-name="E"/>
<glyph horiz-adv-x="628" d="M695 632h-403l-41 -232h326l-14 -82h-327l-55 -318h-90l125 714h493z" unicode="F" glyph-name="F"/>
<glyph horiz-adv-x="748" d="M411 -13q-131 0 -214 82t-83 220q0 119 43 217.5t128.5 159.5t199.5 61q106 0 176 -53.5t86 -145.5h-94q-31 117 -173 117q-68 0 -122.5 -31.5t-86.5 -83.5t-49 -112.5t-17 -124.5q0 -101 55.5 -162.5t155.5 -61.5q98 0 158 58.5t74 171.5h-221l15 80h308 q-3 -81 -24 -149.5t-60 -124t-104.5 -87t-150.5 -31.5z" unicode="G" glyph-name="G"/>
<glyph horiz-adv-x="754" d="M698 714h90l-125 -714h-90l57 326h-392l-57 -326h-90l125 714h90l-54 -304h393z" unicode="H" glyph-name="H"/>
<glyph horiz-adv-x="285" d="M222 714h90l-125 -714h-90z" unicode="I" glyph-name="I"/>
<glyph horiz-adv-x="579" d="M279 -13q-91 0 -149 49.5t-58 137.5q0 11 2 41h90q-2 -22 -2 -27q0 -119 120 -119q130 0 159 166l84 479h90l-87 -494q-19 -111 -82 -172t-167 -61z" unicode="J" glyph-name="J"/>
<glyph horiz-adv-x="710" d="M91 0l125 714h90l-62 -351l423 351h109l-260 -224l162 -490h-95l-138 411h-22l-200 -164l-42 -247h-90z" unicode="K" glyph-name="K"/>
<glyph horiz-adv-x="616" d="M194 85h397l-15 -85h-485l125 714h90z" unicode="L" glyph-name="L"/>
<glyph horiz-adv-x="853" d="M91 0l125 714h143l120 -335h22l233 335h153l-125 -714h-87l107 612h-22l-239 -339h-92l-122 339h-22l-107 -612h-87z" unicode="M" glyph-name="M"/>
<glyph horiz-adv-x="757" d="M704 714h87l-125 -714h-137l-224 597h-22l-105 -597h-87l125 714h137l224 -597h22z" unicode="N" glyph-name="N"/>
<glyph horiz-adv-x="768" d="M483 727q130 0 212.5 -82.5t82.5 -218.5q0 -116 -42 -214.5t-127.5 -161.5t-199.5 -63q-130 0 -212.5 82.5t-82.5 219.5q0 116 42 214t127.5 161t199.5 63zM414 69q68 0 122 32.5t86 85.5t48.5 113.5t16.5 121.5q0 99 -54.5 161t-154.5 62q-68 0 -122 -32.5t-86 -85 t-48.5 -113t-16.5 -121.5q0 -100 54.5 -162t154.5 -62z" unicode="O" glyph-name="O"/>
<glyph horiz-adv-x="675" d="M216 714h295q90 0 149 -50.5t59 -138.5q0 -116 -76.5 -177.5t-201.5 -61.5h-210l-50 -286h-90zM495 634h-203l-47 -268h210q78 0 125.5 39t47.5 116q0 55 -37.5 84t-95.5 29z" unicode="P" glyph-name="P"/>
<glyph horiz-adv-x="768" d="M483 727q130 0 212.5 -82.5t82.5 -218.5q0 -109 -38.5 -204.5t-110.5 -156.5l58 -132h-84l-39 89q-68 -35 -155 -35q-130 0 -212.5 82.5t-82.5 219.5q0 116 42 214t127.5 161t199.5 63zM414 69q67 0 117 29l-94 217h82l73 -167q47 53 71 125.5t24 148.5q0 99 -54.5 161 t-154.5 62q-68 0 -122 -32.5t-86 -85t-48.5 -113t-16.5 -121.5q0 -100 54.5 -162t154.5 -62z" unicode="Q" glyph-name="Q"/>
<glyph horiz-adv-x="697" d="M233 299l-52 -299h-90l125 714h310q87 0 144.5 -49t57.5 -135q0 -151 -139 -209l58 -321h-89l-55 302q-27 -3 -55 -3h-215zM512 634h-220l-45 -255h226q75 0 120.5 37t45.5 110q0 53 -36 80.5t-91 27.5z" unicode="R" glyph-name="R"/>
<glyph horiz-adv-x="659" d="M353 424l129 -33q163 -42 163 -187q0 -101 -79.5 -159t-197.5 -58q-120 0 -198.5 53t-87.5 159h93q17 -130 197 -130q74 0 128 31t54 98q0 88 -107 115l-134 34q-157 42 -157 173q0 98 70.5 152.5t186.5 54.5q104 0 176 -51.5t80 -141.5h-91q-12 56 -57 83.5t-113 27.5 q-66 0 -113.5 -28.5t-47.5 -89.5q0 -43 27 -66.5t79 -36.5z" unicode="S" glyph-name="S"/>
<glyph horiz-adv-x="590" d="M697 714l-13 -80h-233l-111 -634h-90l112 634h-232l13 80h554z" unicode="T" glyph-name="T"/>
<glyph horiz-adv-x="735" d="M681 714h90l-81 -461q-49 -266 -307 -266q-116 0 -185 58.5t-69 154.5q0 30 6 68l79 446h89l-78 -444q-6 -34 -6 -61q0 -66 44 -103t124 -37q179 0 215 198z" unicode="U" glyph-name="U"/>
<glyph horiz-adv-x="662" d="M244 0l-99 714h91l84 -622h49l302 622h95l-350 -714h-172z" unicode="V" glyph-name="V"/>
<glyph horiz-adv-x="869" d="M452 471h125l63 -370h22l184 613h87l-214 -714h-143l-62 382h-22l-197 -382h-146l36 714h85l-31 -613h22z" unicode="W" glyph-name="W"/>
<glyph horiz-adv-x="641" d="M520 0l-119 324h-36l-238 -324h-105l277 377l-121 337h91l104 -285h36l206 285h100l-241 -333l143 -381h-97z" unicode="X" glyph-name="X"/>
<glyph horiz-adv-x="636" d="M368 389h28l245 325h99l-330 -441l-48 -273h-90l48 273l-176 441h92z" unicode="Y" glyph-name="Y"/>
<glyph horiz-adv-x="638" d="M700 714l-18 -103l-501 -508l-4 -21h426l-14 -82h-541l18 104l500 507l4 21h-384l14 82h500z" unicode="Z" glyph-name="Z"/>
<glyph horiz-adv-x="321" d="M241 -141h-189l158 900h189l-11 -68h-110l-135 -764h110z" unicode="[" glyph-name="bracketleft"/>
<glyph horiz-adv-x="399" d="M379 -141h-76l-141 900h73z" unicode="\" glyph-name="backslash"/>
<glyph horiz-adv-x="321" d="M220 -141h-189l11 68h110l135 764h-110l12 68h189z" unicode="]" glyph-name="bracketright"/>
<glyph horiz-adv-x="547" d="M176 294h-82l269 398h63l130 -398h-76l-93 288h-18z" unicode="^" glyph-name="asciicircum"/>
<glyph horiz-adv-x="504" d="M482 -133h-506l11 64h506z" unicode="_" glyph-name="underscore"/>
<glyph horiz-adv-x="258" d="M251 582l-83 145h98l59 -145h-74z" unicode="`" glyph-name="grave"/>
<glyph horiz-adv-x="559" d="M401 0l8 52h-22q-61 -65 -152 -65q-77 0 -121 43t-44 108q0 83 57 131.5t154 48.5h172q6 22 6 48q0 77 -108 77q-112 0 -129 -73h-85q12 69 71 108t149 39q84 0 135 -38.5t51 -105.5q0 -31 -5 -51l-57 -322h-80zM261 61q63 0 113.5 45t60.5 106l6 38h-146 q-138 0 -138 -104q0 -40 27.5 -62.5t76.5 -22.5z" unicode="a" glyph-name="a"/>
<glyph horiz-adv-x="612" d="M607 296q0 -77 -27.5 -145.5t-87.5 -116t-141 -47.5q-111 0 -154 75h-22l-11 -62h-82l128 727h85l-49 -276h22q21 29 60 47.5t83 18.5q93 0 144.5 -63t51.5 -158zM394 443q-87 0 -135.5 -71.5t-48.5 -158.5q0 -72 34 -112t99 -40q72 0 125 63t53 169q0 67 -33 108.5 t-94 41.5z" unicode="b" glyph-name="b"/>
<glyph horiz-adv-x="545" d="M450 152h86q-19 -76 -78.5 -120.5t-147.5 -44.5q-92 0 -154 59.5t-62 158.5q0 132 71.5 222t193.5 90q81 0 134.5 -44.5t63.5 -114.5h-85q-9 40 -38.5 62.5t-78.5 22.5q-81 0 -128.5 -70t-47.5 -164q0 -69 37 -108.5t100 -39.5q50 0 85 24t49 67z" unicode="c" glyph-name="c"/>
<glyph horiz-adv-x="612" d="M94 208q0 76 27.5 145t87 116.5t140.5 47.5q109 0 152 -75h21l51 285h85l-128 -727h-82l9 53h-21q-22 -28 -60 -46.5t-86 -18.5q-90 0 -143 61.5t-53 158.5zM307 61q87 0 135.5 71.5t48.5 158.5q0 72 -34 112t-99 40q-72 0 -125 -63t-53 -169q0 -67 32.5 -108.5 t94.5 -41.5z" unicode="d" glyph-name="d"/>
<glyph horiz-adv-x="562" d="M447 139h86q-20 -71 -78 -111.5t-142 -40.5q-93 0 -156 60.5t-63 160.5q0 134 71.5 221.5t196.5 87.5q94 0 148 -62t54 -159q0 -13 -2 -43h-380q-3 -19 -3 -41q0 -69 38.5 -110.5t104.5 -41.5q92 0 125 79zM358 443q-61 0 -102 -31.5t-60 -87.5h282q-2 54 -32.5 86.5 t-87.5 32.5z" unicode="e" glyph-name="e"/>
<glyph horiz-adv-x="363" d="M408 430h-135l-75 -430h-85l76 430h-86l13 74h86l11 62q15 84 63.5 122.5t131.5 38.5h53l-14 -74h-47q-84 0 -103 -91l-11 -58h135z" unicode="f" glyph-name="f"/>
<glyph horiz-adv-x="610" d="M535 504h83l-83 -472q-20 -115 -91 -177t-175 -62q-88 0 -146.5 41t-60.5 113h83q11 -82 133 -82q139 0 172 171l6 32h-22q-20 -29 -60 -47.5t-85 -18.5q-92 0 -143.5 61t-51.5 152q0 75 28.5 142.5t89.5 113.5t142 46q98 0 147 -78h23zM358 443q-71 0 -124.5 -61 t-53.5 -164q0 -65 34 -103.5t96 -38.5q86 0 133.5 67.5t47.5 151.5q0 69 -35.5 108.5t-97.5 39.5z" unicode="g" glyph-name="g"/>
<glyph horiz-adv-x="599" d="M525 0h-85l51 291q6 32 6 56q0 94 -107 94q-68 0 -115.5 -48t-59.5 -122l-48 -271h-85l129 727h85l-49 -276h22q51 66 151 66q77 0 120 -42.5t43 -112.5q0 -24 -6 -64z" unicode="h" glyph-name="h"/>
<glyph horiz-adv-x="251" d="M256 504l-89 -504h-85l88 504h86zM281 635h-90l16 92h90z" unicode="i" glyph-name="i"/>
<glyph horiz-adv-x="261" d="M180 504h86l-97 -545q-29 -159 -187 -159h-64l13 74h46q50 0 75.5 23.5t33.5 73.5zM217 727h90l-17 -92h-90z" unicode="j" glyph-name="j"/>
<glyph horiz-adv-x="546" d="M534 0h-87l-93 274h-22l-140 -128l-25 -146h-85l128 727h85l-84 -473l275 250h103l-170 -155z" unicode="k" glyph-name="k"/>
<glyph horiz-adv-x="249" d="M295 727l-128 -727h-85l128 727h85z" unicode="l" glyph-name="l"/>
<glyph horiz-adv-x="845" d="M253 504l-8 -49h22q47 62 128 62q89 0 118 -66h22q57 66 152 66q69 0 105.5 -37.5t36.5 -102.5q0 -28 -5 -61l-55 -316h-85l54 310q5 28 5 54q0 77 -81 77q-58 0 -95 -39.5t-47 -102.5l-53 -299h-85l56 321q5 20 5 44q0 76 -79 76q-61 0 -98 -46t-48 -108l-51 -287h-85 l88 504h83z" unicode="m" glyph-name="m"/>
<glyph horiz-adv-x="599" d="M525 0h-85l51 291q6 34 6 56q0 94 -107 94q-68 0 -115.5 -48t-59.5 -122l-48 -271h-85l89 504h83l-10 -53h22q55 66 154 66q78 0 120.5 -41.5t42.5 -113.5q0 -24 -6 -64z" unicode="n" glyph-name="n"/>
<glyph horiz-adv-x="602" d="M369 517q98 0 163 -59.5t65 -161.5q0 -134 -74.5 -221.5t-200.5 -87.5q-98 0 -163 59.5t-65 162.5q0 133 73.5 220.5t201.5 87.5zM327 61q86 0 135.5 68t49.5 164q0 69 -40.5 109.5t-107.5 40.5q-86 0 -135.5 -68.5t-49.5 -162.5q0 -70 40.5 -110.5t107.5 -40.5z" unicode="o" glyph-name="o"/>
<glyph horiz-adv-x="612" d="M171 504h82l-10 -53h22q22 29 61.5 47.5t84.5 18.5q92 0 144 -63t52 -158q0 -77 -27.5 -145.5t-87.5 -116t-141 -47.5q-108 0 -151 75h-22l-46 -262h-85zM343 61q72 0 125 63t53 169q0 67 -33 108.5t-94 41.5q-87 0 -135.5 -71.5t-48.5 -158.5q0 -72 34 -112t99 -40z" unicode="p" glyph-name="p"/>
<glyph horiz-adv-x="611" d="M94 208q0 77 27.5 145.5t87.5 116t141 47.5q110 0 153 -75h22l12 62h82l-124 -704h-85l45 253h-22q-21 -29 -60 -47.5t-83 -18.5q-92 0 -144 63t-52 158zM307 61q87 0 135.5 71.5t48.5 158.5q0 72 -34 112t-99 40q-72 0 -125 -63t-53 -169q0 -67 32.5 -108.5t94.5 -41.5z " unicode="q" glyph-name="q"/>
<glyph horiz-adv-x="393" d="M455 504l-14 -80h-41q-75 0 -124 -43t-63 -121l-46 -260h-85l89 504h83l-11 -60h22q56 60 150 60h40z" unicode="r" glyph-name="r"/>
<glyph horiz-adv-x="515" d="M64 146h84q3 -38 41.5 -61.5t99.5 -23.5q52 0 87 21t35 61q0 26 -19 42.5t-61 27.5l-92 26q-61 18 -91.5 48t-30.5 80q0 72 55.5 111t142.5 39q80 0 137 -38.5t63 -105.5h-84q-5 32 -36.5 51t-82.5 19q-47 0 -78.5 -18t-31.5 -55q0 -19 10.5 -30.5t23.5 -17t42 -13.5 l93 -26q125 -35 125 -136q0 -70 -59 -115t-152 -45q-91 0 -153 39.5t-68 119.5z" unicode="s" glyph-name="s"/>
<glyph horiz-adv-x="379" d="M287 504h125l-13 -74h-125l-50 -279q-3 -13 -3 -31q0 -44 63 -44h51l-12 -76h-46q-142 0 -142 104q0 22 6 52l48 274h-86l13 74h86l27 152h85z" unicode="t" glyph-name="t"/>
<glyph horiz-adv-x="599" d="M164 504h85l-51 -291q-6 -32 -6 -52q0 -98 106 -98q67 0 115.5 48t60.5 122l48 271h85l-90 -504h-82l9 53h-22q-55 -66 -154 -66q-77 0 -119.5 42.5t-42.5 115.5q0 21 6 61z" unicode="u" glyph-name="u"/>
<glyph horiz-adv-x="533" d="M187 0l-75 504h84l63 -424h39l210 424h92l-256 -504h-157z" unicode="v" glyph-name="v"/>
<glyph horiz-adv-x="685" d="M348 339h106l38 -249h22l128 414h82l-158 -504h-125l-42 255h-22l-132 -255h-129l20 504h79l-18 -414h22z" unicode="w" glyph-name="w"/>
<glyph horiz-adv-x="546" d="M419 0l-88 211h-34l-164 -211h-96l201 258l-96 246h84l79 -200h34l152 200h93l-184 -243l108 -261h-89z" unicode="x" glyph-name="x"/>
<glyph horiz-adv-x="535" d="M179 -200h-88l149 250l-129 454h84l94 -332h27l197 332h89z" unicode="y" glyph-name="y"/>
<glyph horiz-adv-x="513" d="M463 0h-413l16 96l351 312l4 22h-278l13 74h394l-18 -95l-351 -313l-4 -22h299z" unicode="z" glyph-name="z"/>
<glyph horiz-adv-x="390" d="M230 320l-4 -22q40 -13 40 -68q0 -26 -5 -44l-27 -155q-4 -17 -4 -42q0 -62 74 -62h34l-11 -68h-37q-65 0 -103 29.5t-38 87.5q0 29 5 49l26 151q5 32 5 45q0 53 -51 53h-14l13 70h13q37 0 54.5 23.5t26.5 72.5l28 163q27 156 181 156h49l-12 -68h-37q-43 0 -68 -23 t-35 -76l-30 -171q-14 -83 -73 -101z" unicode="{" glyph-name="braceleft"/>
<glyph horiz-adv-x="251" d="M62 -141l158 900h77l-158 -900h-77z" unicode="|" glyph-name="bar"/>
<glyph horiz-adv-x="390" d="M269 298l4 22q-40 13 -40 68q0 26 5 44l27 155q4 17 4 42q0 62 -74 62h-34l11 68h37q65 0 103 -29.5t38 -87.5q0 -29 -5 -49l-26 -151q-5 -32 -5 -45q0 -53 51 -53h14l-13 -70h-13q-37 0 -54.5 -23.5t-26.5 -72.5l-28 -163q-27 -156 -181 -156h-49l12 68h37q43 0 68 23 t35 76l30 171q14 83 73 101z" unicode="}" glyph-name="braceright"/>
<glyph horiz-adv-x="669" d="M564 343h67q0 -75 -34.5 -111.5t-94.5 -36.5q-33 0 -68.5 17t-61 37.5t-56 37.5t-55.5 17q-59 0 -59 -80h-67q0 148 129 148q34 0 69 -17t60 -37.5t56 -37.5t56 -17q59 0 59 80z" unicode="~" glyph-name="asciitilde"/>
<glyph horiz-adv-x="278" unicode=" " glyph-name="uni00A0"/>
<glyph horiz-adv-x="314" d="M159 -200h-88l50 285l57 230h55l-24 -230zM269 388h-104l20 116h104z" unicode="¡" glyph-name="exclamdown"/>
<glyph horiz-adv-x="545" d="M450 152h86q-18 -75 -76.5 -120t-142.5 -45h-7l-12 -67h-55l13 73q-72 15 -117 71.5t-45 140.5q0 129 68 219t186 92l12 68h55l-13 -71q64 -10 105.5 -52t49.5 -103h-85q-16 71 -83 81l-66 -378q46 0 79 25t48 66zM179 209q0 -56 24 -93.5t66 -48.5l66 374 q-73 -6 -114.5 -74.5t-41.5 -157.5z" unicode="¢" glyph-name="cent"/>
<glyph horiz-adv-x="630" d="M224 78h381l-13 -78h-532l13 78h20q37 0 58 22.5t29 68.5l21 116h-91l13 74h90l26 144q38 211 227 211q83 0 133.5 -42t50.5 -118q0 -20 -3 -41h-84q3 16 3 32q0 43 -26.5 67t-77.5 24q-114 0 -138 -135l-25 -142h214l-13 -74h-214l-18 -106q-6 -30 -14 -47t-26 -33z" unicode="£" glyph-name="sterling"/>
<glyph horiz-adv-x="723" d="M638 7l-68 67q-69 -55 -159 -55t-161 55l-68 -67l-47 47l67 68q-55 71 -55 161t55 159l-67 68l47 48l68 -67q74 54 161 54t159 -54l68 67l47 -48l-67 -68q55 -69 55 -159q0 -91 -55 -160l67 -69zM411 83q81 0 135.5 57t54.5 143q0 85 -54.5 141.5t-135.5 56.5t-137 -57 t-56 -141q0 -86 55.5 -143t137.5 -57z" unicode="¤" glyph-name="currency"/>
<glyph horiz-adv-x="605" d="M157 302l10 57h96l-119 341h89l116 -341h28l237 341h95l-240 -341h97l-10 -57h-126l-40 -58l-4 -15h157l-10 -57h-157l-30 -172h-86l30 172h-156l10 57h156l3 15l-21 58h-125z" unicode="¥" glyph-name="yen"/>
<glyph horiz-adv-x="251" d="M160 414l60 345h77l-60 -345h-77zM62 -141l60 345h78l-61 -345h-77z" unicode="¦" glyph-name="brokenbar"/>
<glyph horiz-adv-x="598" d="M90 24h82q-3 -58 30.5 -91.5t95.5 -33.5q57 0 91 28t34 74q0 31 -15.5 49t-52.5 33l-124 49q-121 48 -121 143q0 63 35 100.5t74 48.5l5 22q-36 32 -36 93q0 76 57.5 125.5t151.5 49.5q90 0 150 -51t54 -147h-83q5 58 -29.5 91.5t-95.5 33.5q-59 0 -90.5 -28t-31.5 -74 q0 -30 16 -48.5t52 -33.5l124 -49q121 -48 121 -142q0 -63 -35 -100.5t-75 -48.5l-3 -22q36 -34 36 -95q0 -76 -59.5 -125t-154.5 -49q-94 0 -152.5 53t-50.5 145zM427 341l-147 58q-30 -11 -58 -40t-28 -74q0 -31 17.5 -50t56.5 -35l145 -59q32 12 60 40.5t28 73.5 q0 32 -18 51.5t-56 34.5z" unicode="§" glyph-name="section"/>
<glyph horiz-adv-x="339" d="M235 635h-83l16 92h83zM417 635h-83l16 92h83z" unicode="¨" glyph-name="dieresis"/>
<glyph horiz-adv-x="860" d="M600 296h63q-9 -60 -51.5 -98.5t-108.5 -38.5q-84 0 -132.5 56t-48.5 141q0 87 48 142.5t133 55.5q63 0 105.5 -35t50.5 -93h-63q-14 72 -93 72q-59 0 -88.5 -39.5t-29.5 -102.5q0 -62 29.5 -101t88.5 -39q82 0 97 80zM493 727q154 0 261 -108t107 -262t-107 -262 t-261 -108t-261 108t-107 262t107 262t261 108zM493 43q130 0 219 91t89 223t-89 223t-219 91t-219 -91t-89 -223t89 -223t219 -91z" unicode="©" glyph-name="copyright"/>
<glyph horiz-adv-x="429" d="M374 334v41h-8q-42 -49 -120 -49q-65 0 -100.5 36t-35.5 88q0 51 35 87t109 36h117v18q0 71 -86 71q-78 0 -84 -56h-67q3 53 44 84t105 31q71 0 112.5 -33.5t41.5 -97.5v-256h-63zM259 383q46 0 79 29.5t33 72.5v36h-103q-42 0 -67 -19t-25 -49q0 -32 23 -51t60 -19z" unicode="ª" glyph-name="ordfeminine"/>
<glyph horiz-adv-x="562" d="M187 291l-4 -21l131 -169h-90l-121 151l11 66l170 149h97zM395 291l-4 -21l131 -169h-90l-121 151l11 66l170 149h97z" unicode="«" glyph-name="guillemotleft"/>
<glyph horiz-adv-x="683" d="M555 108v207h-437v72h509v-279h-72z" unicode="¬" glyph-name="logicalnot"/>
<glyph horiz-adv-x="371" d="M363 240h-272l13 75h273z" unicode="­" glyph-name="uni00AD"/>
<glyph horiz-adv-x="860" d="M354 547h173q62 0 94.5 -29.5t32.5 -83.5q0 -69 -56 -98l60 -170h-64l-55 156h-123v-156h-62v381zM416 376h102q74 0 74 58q0 57 -74 57h-102v-115zM493 727q154 0 261 -108t107 -262t-107 -262t-261 -108t-261 108t-107 262t107 262t261 108zM493 43q130 0 219 91 t89 223t-89 223t-219 91t-219 -91t-89 -223t89 -223t219 -91z" unicode="®" glyph-name="registered"/>
<glyph horiz-adv-x="356" d="M435 639h-282l10 64h282z" unicode="¯" glyph-name="overscore"/>
<glyph horiz-adv-x="472" d="M523 523q0 -85 -56 -141.5t-140 -56.5t-140 56.5t-56 141.5t56 141.5t140 56.5t140 -56.5t56 -141.5zM327 383q57 0 95 40t38 100t-38 100t-95 40t-95 -40t-38 -100t38 -100t95 -40z" unicode="°" glyph-name="degree"/>
<glyph d="M116 0v73h508v-73h-508zM333 379v165h73v-165h218v-73h-218v-160h-73v160h-216v73h216z" unicode="±" glyph-name="plusminus"/>
<glyph horiz-adv-x="356" d="M388 391l-11 -58h-279l13 73l161 106q72 48 72 95q0 26 -18 41t-46 15q-67 0 -77 -62h-65q21 120 148 120q52 0 88.5 -30t36.5 -78q0 -33 -18 -62.5t-36.5 -44.5t-48.5 -35l-98 -65l-3 -15h181z" unicode="²" glyph-name="twosuperior"/>
<glyph horiz-adv-x="369" d="M415 648l-94 -64l-3 -13q42 -8 62.5 -37t20.5 -67q0 -64 -41 -102.5t-110 -38.5q-60 0 -99 35t-39 91h64q2 -32 23 -49.5t54 -17.5q39 0 61.5 22t22.5 58q0 29 -19 45t-49 16q-23 0 -38 -4l11 63l79 55l3 16h-154l9 58h247z" unicode="³" glyph-name="threesuperior"/>
<glyph horiz-adv-x="258" d="M354 727l-135 -145h-79l111 145h103z" unicode="´" glyph-name="acute"/>
<glyph horiz-adv-x="613" d="M123 504h85v-302q0 -139 128 -139q65 0 107.5 49t42.5 119v273h85v-504h-82v54h-22q-22 -30 -62 -48.5t-90 -18.5q-63 0 -107 25v-212h-85v704z" unicode="µ" glyph-name="mu"/>
<glyph horiz-adv-x="662" d="M397 714h347l-11 -65h-80l-146 -826h-77l146 826h-115l-146 -826h-77l87 491q-91 0 -144.5 42.5t-53.5 126.5q0 112 76.5 171.5t193.5 59.5z" unicode="¶" glyph-name="paragraph"/>
<glyph horiz-adv-x="258" d="M228 264h-104l20 116h104z" unicode="·" glyph-name="middot"/>
<glyph horiz-adv-x="257" d="M103 18h44l-48 -84h13q13 9 31 9q25 0 41 -18.5t16 -50.5q0 -41 -27.5 -67.5t-73.5 -26.5q-38 0 -61.5 19.5t-24.5 49.5h54q6 -23 35 -23q18 0 30 11.5t12 31.5q0 14 -9.5 22.5t-24.5 8.5q-19 0 -30 -11h-51z" unicode="¸" glyph-name="cedilla"/>
<glyph horiz-adv-x="331" d="M271 391h93l-10 -58h-253l10 58h94l44 246h-16l-86 -45l11 65l105 57h65z" unicode="¹" glyph-name="onesuperior"/>
<glyph horiz-adv-x="445" d="M297 721q85 0 134.5 -56t49.5 -141t-50 -141.5t-134 -56.5t-134 56.5t-50 141.5t49.5 141t134.5 56zM297 385q56 0 87 41.5t31 97.5q0 57 -31 97t-87 40q-57 0 -87.5 -40t-30.5 -97t31 -98t87 -41z" unicode="º" glyph-name="ordmasculine"/>
<glyph horiz-adv-x="562" d="M474 277l4 21l-131 169h90l121 -151l-11 -66l-170 -149h-97zM266 277l4 21l-131 169h90l121 -151l-11 -66l-170 -149h-97z" unicode="»" glyph-name="guillemotright"/>
<glyph horiz-adv-x="889" d="M287 0h-73l547 700h72zM271 391h93l-10 -58h-253l10 58h94l44 246h-16l-86 -45l11 65l105 57h65zM823 144h52l-10 -58h-52l-15 -86h-65l15 86h-192l11 64l212 231h86zM642 144h117l28 158h-15l-127 -142z" unicode="¼" glyph-name="onequarter"/>
<glyph horiz-adv-x="914" d="M287 0h-73l547 700h72zM271 391h93l-10 -58h-253l10 58h94l44 246h-16l-86 -45l11 65l105 57h65zM883 58l-11 -58h-279l13 73l161 106q72 48 72 95q0 26 -18 41t-46 15q-67 0 -77 -62h-65q21 120 148 120q52 0 88.5 -30t36.5 -78q0 -33 -18 -62.5t-36.5 -44.5t-48.5 -35 l-98 -65l-3 -15h181z" unicode="½" glyph-name="onehalf"/>
<glyph horiz-adv-x="901" d="M299 0h-73l547 700h72zM835 144h52l-10 -58h-52l-15 -86h-65l15 86h-192l11 64l212 231h86zM654 144h117l28 158h-15l-127 -142zM415 648l-94 -64l-3 -13q42 -8 62.5 -37t20.5 -67q0 -64 -41 -102.5t-110 -38.5q-60 0 -99 35t-39 91h64q2 -32 23 -49.5t54 -17.5 q39 0 61.5 22t22.5 58q0 29 -19 45t-49 16q-23 0 -38 -4l11 63l79 55l3 16h-154l9 58h247z" unicode="¾" glyph-name="threequarters"/>
<glyph horiz-adv-x="535" d="M255 -207q-90 0 -147 49t-57 125q0 72 36.5 120t111.5 91q50 29 69 50t27 67l3 20h86l-3 -20q-12 -65 -40 -99t-95 -72q-55 -32 -81.5 -67t-26.5 -85q0 -46 33.5 -75.5t89.5 -29.5q124 0 145 133h85q-15 -95 -74 -151t-162 -56zM321 504h102l-20 -116h-101z" unicode="¿" glyph-name="questiondown"/>
<glyph d="M568 0l-35 218h-309l-111 -218h-93l368 714h152l120 -714h-92zM429 622l-164 -322h255l-51 322h-40zM431 767l-87 129h98l64 -129h-75z" unicode="À" glyph-name="Agrave"/>
<glyph d="M568 0l-35 218h-309l-111 -218h-93l368 714h152l120 -714h-92zM429 622l-164 -322h255l-51 322h-40zM638 896l-130 -129h-80l108 129h102z" unicode="Á" glyph-name="Aacute"/>
<glyph d="M568 0l-35 218h-309l-111 -218h-93l368 714h152l120 -714h-92zM429 622l-164 -322h255l-51 322h-40zM322 767l128 129h85l84 -129h-74l-47 71h-22l-72 -71h-82z" unicode="Â" glyph-name="Acircumflex"/>
<glyph d="M568 0l-35 218h-309l-111 -218h-93l368 714h152l120 -714h-92zM429 622l-164 -322h255l-51 322h-40zM608 896h52q-23 -129 -112 -129q-22 0 -43 11t-33.5 24.5t-28.5 24.5t-29 11q-40 0 -53 -71h-52q23 129 112 129q28 0 53 -18t45 -35.5t36 -17.5q40 0 53 71z" unicode="Ã" glyph-name="Atilde"/>
<glyph d="M568 0l-35 218h-309l-111 -218h-93l368 714h152l120 -714h-92zM429 622l-164 -322h255l-51 322h-40zM428 807h-83l15 89h83zM610 807h-83l15 89h83z" unicode="Ä" glyph-name="Adieresis"/>
<glyph d="M466 898q45 0 76.5 -32t31.5 -76q0 -47 -34 -79l120 -711h-92l-35 218h-309l-111 -218h-93l368 713q-32 32 -32 77q0 44 32 76t78 32zM429 622l-164 -322h255l-51 322h-40zM466 732q24 0 40.5 16.5t16.5 41.5q0 24 -16.5 40.5t-40.5 16.5q-25 0 -41.5 -16.5t-16.5 -40.5 q0 -25 16.5 -41.5t41.5 -16.5z" unicode="Å" glyph-name="Aring"/>
<glyph horiz-adv-x="998" d="M493 0l38 218h-270l-150 -218h-103l503 714h548l-14 -82h-351l-40 -221h273l-13 -82h-274l-44 -247h367l-14 -82h-456zM548 632l-230 -332h227l58 332h-55z" unicode="Æ" glyph-name="AE"/>
<glyph horiz-adv-x="708" d="M611 203h95q-31 -98 -109.5 -157t-189.5 -59q-4 0 -12 0.5t-12 0.5l-31 -54h13q13 9 31 9q25 0 41 -18.5t16 -50.5q0 -41 -27.5 -67.5t-73.5 -26.5q-38 0 -61.5 19.5t-24.5 49.5h54q6 -23 35 -23q18 0 30 11.5t12 31.5q0 14 -9.5 22.5t-24.5 8.5q-19 0 -30 -11h-51 l60 104q-104 21 -166 98.5t-62 197.5q0 117 42 215.5t127 160.5t197 62q103 0 173.5 -54t86.5 -146h-93q-27 118 -171 118q-67 0 -120.5 -32t-85.5 -84.5t-48.5 -113t-16.5 -122.5q0 -99 54.5 -161.5t152.5 -62.5q75 0 125.5 36t73.5 98z" unicode="Ç" glyph-name="Ccedilla"/>
<glyph horiz-adv-x="646" d="M194 82h416l-13 -82h-506l125 714h491l-14 -82h-401l-40 -221h323l-14 -82h-322zM460 767l-87 129h98l64 -129h-75z" unicode="È" glyph-name="Egrave"/>
<glyph horiz-adv-x="646" d="M194 82h416l-13 -82h-506l125 714h491l-14 -82h-401l-40 -221h323l-14 -82h-322zM608 896l-130 -129h-80l108 129h102z" unicode="É" glyph-name="Eacute"/>
<glyph horiz-adv-x="646" d="M194 82h416l-13 -82h-506l125 714h491l-14 -82h-401l-40 -221h323l-14 -82h-322zM325 767l128 129h85l84 -129h-74l-47 71h-22l-72 -71h-82z" unicode="Ê" glyph-name="Ecircumflex"/>
<glyph horiz-adv-x="646" d="M194 82h416l-13 -82h-506l125 714h491l-14 -82h-401l-40 -221h323l-14 -82h-322zM427 807h-83l15 89h83zM609 807h-83l15 89h83z" unicode="Ë" glyph-name="Edieresis"/>
<glyph horiz-adv-x="285" d="M222 714h90l-125 -714h-90zM241 767l-87 129h98l64 -129h-75z" unicode="Ì" glyph-name="Igrave"/>
<glyph horiz-adv-x="285" d="M222 714h90l-125 -714h-90zM448 896l-130 -129h-80l108 129h102z" unicode="Í" glyph-name="Iacute"/>
<glyph horiz-adv-x="285" d="M222 714h90l-125 -714h-90zM125 767l128 129h85l84 -129h-74l-47 71h-22l-72 -71h-82z" unicode="Î" glyph-name="Icircumflex"/>
<glyph horiz-adv-x="285" d="M222 714h90l-125 -714h-90zM231 807h-83l15 89h83zM413 807h-83l15 89h83z" unicode="Ï" glyph-name="Idieresis"/>
<glyph horiz-adv-x="759" d="M97 332l13 74h77l54 308h216q145 0 228.5 -70.5t83.5 -218.5q0 -83 -22.5 -156.5t-68.5 -135t-124.5 -97.5t-181.5 -36h-256l58 332h-77zM219 82h166q69 0 122.5 23.5t84.5 58.5t51.5 83t27.5 90.5t7 86.5q0 208 -220 208h-141l-41 -226h235l-13 -74h-235z" unicode="Ð" glyph-name="Eth"/>
<glyph horiz-adv-x="757" d="M704 714h87l-125 -714h-137l-224 597h-22l-105 -597h-87l125 714h137l224 -597h22zM641 896h52q-23 -129 -112 -129q-22 0 -43 11t-33.5 24.5t-28.5 24.5t-29 11q-40 0 -53 -71h-52q22 129 112 129q28 0 53 -18t45 -35.5t36 -17.5q40 0 53 71z" unicode="Ñ" glyph-name="Ntilde"/>
<glyph horiz-adv-x="768" d="M483 727q130 0 212.5 -82.5t82.5 -218.5q0 -116 -42 -214.5t-127.5 -161.5t-199.5 -63q-130 0 -212.5 82.5t-82.5 219.5q0 116 42 214t127.5 161t199.5 63zM414 69q68 0 122 32.5t86 85.5t48.5 113.5t16.5 121.5q0 99 -54.5 161t-154.5 62q-68 0 -122 -32.5t-86 -85 t-48.5 -113t-16.5 -121.5q0 -100 54.5 -162t154.5 -62zM494 767l-87 129h98l64 -129h-75z" unicode="Ò" glyph-name="Ograve"/>
<glyph horiz-adv-x="768" d="M483 727q130 0 212.5 -82.5t82.5 -218.5q0 -116 -42 -214.5t-127.5 -161.5t-199.5 -63q-130 0 -212.5 82.5t-82.5 219.5q0 116 42 214t127.5 161t199.5 63zM414 69q68 0 122 32.5t86 85.5t48.5 113.5t16.5 121.5q0 99 -54.5 161t-154.5 62q-68 0 -122 -32.5t-86 -85 t-48.5 -113t-16.5 -121.5q0 -100 54.5 -162t154.5 -62zM683 896l-130 -129h-80l108 129h102z" unicode="Ó" glyph-name="Oacute"/>
<glyph horiz-adv-x="768" d="M483 727q130 0 212.5 -82.5t82.5 -218.5q0 -116 -42 -214.5t-127.5 -161.5t-199.5 -63q-130 0 -212.5 82.5t-82.5 219.5q0 116 42 214t127.5 161t199.5 63zM414 69q68 0 122 32.5t86 85.5t48.5 113.5t16.5 121.5q0 99 -54.5 161t-154.5 62q-68 0 -122 -32.5t-86 -85 t-48.5 -113t-16.5 -121.5q0 -100 54.5 -162t154.5 -62zM377 767l128 129h85l84 -129h-74l-47 71h-22l-72 -71h-82z" unicode="Ô" glyph-name="Ocircumflex"/>
<glyph horiz-adv-x="768" d="M483 727q130 0 212.5 -82.5t82.5 -218.5q0 -116 -42 -214.5t-127.5 -161.5t-199.5 -63q-130 0 -212.5 82.5t-82.5 219.5q0 116 42 214t127.5 161t199.5 63zM414 69q68 0 122 32.5t86 85.5t48.5 113.5t16.5 121.5q0 99 -54.5 161t-154.5 62q-68 0 -122 -32.5t-86 -85 t-48.5 -113t-16.5 -121.5q0 -100 54.5 -162t154.5 -62zM652 896h52q-23 -129 -112 -129q-22 0 -43 11t-33.5 24.5t-28.5 24.5t-29 11q-40 0 -53 -71h-52q23 129 112 129q28 0 53 -18t45 -35.5t36 -17.5q40 0 53 71z" unicode="Õ" glyph-name="Otilde"/>
<glyph horiz-adv-x="768" d="M483 727q130 0 212.5 -82.5t82.5 -218.5q0 -116 -42 -214.5t-127.5 -161.5t-199.5 -63q-130 0 -212.5 82.5t-82.5 219.5q0 116 42 214t127.5 161t199.5 63zM414 69q68 0 122 32.5t86 85.5t48.5 113.5t16.5 121.5q0 99 -54.5 161t-154.5 62q-68 0 -122 -32.5t-86 -85 t-48.5 -113t-16.5 -121.5q0 -100 54.5 -162t154.5 -62zM480 807h-83l15 89h83zM662 807h-83l15 89h83z" unicode="Ö" glyph-name="Odieresis"/>
<glyph horiz-adv-x="638" d="M317 284l-182 183l50 50l183 -183l182 183l50 -50l-182 -183l182 -183l-50 -50l-182 182l-183 -182l-50 50z" unicode="×" glyph-name="multiply"/>
<glyph horiz-adv-x="768" d="M483 727q131 0 212 -83l70 70h78l-113 -113q48 -74 48 -175q0 -116 -42 -214.5t-127.5 -161.5t-199.5 -63q-130 0 -211 81l-68 -68h-77l110 110q-49 76 -49 179q0 116 42 214t127.5 161t199.5 63zM205 293q0 -66 24 -117l404 406q-57 63 -155 63q-68 0 -122 -32.5 t-86 -85t-48.5 -113t-16.5 -121.5zM414 69q68 0 122 32.5t86 85.5t48.5 113.5t16.5 121.5t-23 113l-404 -405q55 -61 154 -61z" unicode="Ø" glyph-name="Oslash"/>
<glyph horiz-adv-x="735" d="M681 714h90l-81 -461q-49 -266 -307 -266q-116 0 -185 58.5t-69 154.5q0 30 6 68l79 446h89l-78 -444q-6 -34 -6 -61q0 -66 44 -103t124 -37q179 0 215 198zM487 767l-87 129h98l64 -129h-75z" unicode="Ù" glyph-name="Ugrave"/>
<glyph horiz-adv-x="735" d="M681 714h90l-81 -461q-49 -266 -307 -266q-116 0 -185 58.5t-69 154.5q0 30 6 68l79 446h89l-78 -444q-6 -34 -6 -61q0 -66 44 -103t124 -37q179 0 215 198zM654 896l-130 -129h-80l108 129h102z" unicode="Ú" glyph-name="Uacute"/>
<glyph horiz-adv-x="735" d="M681 714h90l-81 -461q-49 -266 -307 -266q-116 0 -185 58.5t-69 154.5q0 30 6 68l79 446h89l-78 -444q-6 -34 -6 -61q0 -66 44 -103t124 -37q179 0 215 198zM352 767l128 129h85l84 -129h-74l-47 71h-22l-72 -71h-82z" unicode="Û" glyph-name="Ucircumflex"/>
<glyph horiz-adv-x="735" d="M681 714h90l-81 -461q-49 -266 -307 -266q-116 0 -185 58.5t-69 154.5q0 30 6 68l79 446h89l-78 -444q-6 -34 -6 -61q0 -66 44 -103t124 -37q179 0 215 198zM455 807h-83l15 89h83zM637 807h-83l15 89h83z" unicode="Ü" glyph-name="Udieresis"/>
<glyph horiz-adv-x="636" d="M368 389h28l245 325h99l-330 -441l-48 -273h-90l48 273l-176 441h92zM601 896l-130 -129h-80l108 129h102z" unicode="Ý" glyph-name="Yacute"/>
<glyph horiz-adv-x="646" d="M280 562h190q86 0 142.5 -48.5t56.5 -132.5q0 -111 -73 -169.5t-192 -58.5h-196l-28 -153h-90l126 714h91zM455 482h-189l-44 -249h195q72 0 117 36t45 108q0 51 -35 78t-89 27z" unicode="Þ" glyph-name="Thorn"/>
<glyph horiz-adv-x="612" d="M112 0l75 430h-93l13 74h94q21 114 74 169t156 55q87 0 140.5 -47t53.5 -122q0 -54 -25.5 -96.5t-72.5 -64.5l-3 -22q92 -48 92 -151q0 -102 -71 -163.5t-180 -61.5h-77l13 73h62q75 0 121.5 41.5t46.5 113.5q0 56 -39.5 89.5t-96.5 33.5h-43l13 73h57q53 0 85.5 36.5 t32.5 89.5q0 49 -31 76t-81 27q-61 0 -95 -32.5t-45 -98.5l-92 -522h-84z" unicode="ß" glyph-name="germandbls"/>
<glyph horiz-adv-x="559" d="M401 0l8 52h-22q-61 -65 -152 -65q-77 0 -121 43t-44 108q0 83 57 131.5t154 48.5h172q6 22 6 48q0 77 -108 77q-112 0 -129 -73h-85q12 69 71 108t149 39q84 0 135 -38.5t51 -105.5q0 -31 -5 -51l-57 -322h-80zM261 61q63 0 113.5 45t60.5 106l6 38h-146 q-138 0 -138 -104q0 -40 27.5 -62.5t76.5 -22.5zM365 582l-83 145h98l59 -145h-74z" unicode="à" glyph-name="agrave"/>
<glyph horiz-adv-x="559" d="M401 0l8 52h-22q-61 -65 -152 -65q-77 0 -121 43t-44 108q0 83 57 131.5t154 48.5h172q6 22 6 48q0 77 -108 77q-112 0 -129 -73h-85q12 69 71 108t149 39q84 0 135 -38.5t51 -105.5q0 -31 -5 -51l-57 -322h-80zM261 61q63 0 113.5 45t60.5 106l6 38h-146 q-138 0 -138 -104q0 -40 27.5 -62.5t76.5 -22.5zM540 727l-135 -145h-79l111 145h103z" unicode="á" glyph-name="aacute"/>
<glyph horiz-adv-x="559" d="M401 0l8 52h-22q-61 -65 -152 -65q-77 0 -121 43t-44 108q0 83 57 131.5t154 48.5h172q6 22 6 48q0 77 -108 77q-112 0 -129 -73h-85q12 69 71 108t149 39q84 0 135 -38.5t51 -105.5q0 -31 -5 -51l-57 -322h-80zM261 61q63 0 113.5 45t60.5 106l6 38h-146 q-138 0 -138 -104q0 -40 27.5 -62.5t76.5 -22.5zM455 727l80 -145h-71l-48 86h-22l-78 -86h-78l133 145h84z" unicode="â" glyph-name="acircumflex"/>
<glyph horiz-adv-x="559" d="M401 0l8 52h-22q-61 -65 -152 -65q-77 0 -121 43t-44 108q0 83 57 131.5t154 48.5h172q6 22 6 48q0 77 -108 77q-112 0 -129 -73h-85q12 69 71 108t149 39q84 0 135 -38.5t51 -105.5q0 -31 -5 -51l-57 -322h-80zM261 61q63 0 113.5 45t60.5 106l6 38h-146 q-138 0 -138 -104q0 -40 27.5 -62.5t76.5 -22.5zM520 720h52q-23 -132 -114 -132q-28 0 -53 18t-44.5 36t-35.5 18q-38 0 -52 -72h-52q24 132 114 132q22 0 43 -11.5t33.5 -25t28 -25t28.5 -11.5q39 0 52 73z" unicode="ã" glyph-name="atilde"/>
<glyph horiz-adv-x="559" d="M401 0l8 52h-22q-61 -65 -152 -65q-77 0 -121 43t-44 108q0 83 57 131.5t154 48.5h172q6 22 6 48q0 77 -108 77q-112 0 -129 -73h-85q12 69 71 108t149 39q84 0 135 -38.5t51 -105.5q0 -31 -5 -51l-57 -322h-80zM261 61q63 0 113.5 45t60.5 106l6 38h-146 q-138 0 -138 -104q0 -40 27.5 -62.5t76.5 -22.5zM343 635h-83l16 92h83zM525 635h-83l16 92h83z" unicode="ä" glyph-name="adieresis"/>
<glyph horiz-adv-x="559" d="M401 0l8 52h-22q-61 -65 -152 -65q-77 0 -121 43t-44 108q0 83 57 131.5t154 48.5h172q6 22 6 48q0 77 -108 77q-112 0 -129 -73h-85q12 69 71 108t149 39q84 0 135 -38.5t51 -105.5q0 -31 -5 -51l-57 -322h-80zM261 61q63 0 113.5 45t60.5 106l6 38h-146 q-138 0 -138 -104q0 -40 27.5 -62.5t76.5 -22.5zM400 795q45 0 76.5 -31.5t31.5 -76.5q0 -44 -31.5 -76t-76.5 -32q-46 0 -78 32t-32 76q0 45 32 76.5t78 31.5zM400 630q24 0 40.5 16t16.5 41t-16.5 41.5t-40.5 16.5q-25 0 -41.5 -16.5t-16.5 -41.5t16.5 -41t41.5 -16z" unicode="å" glyph-name="aring"/>
<glyph horiz-adv-x="899" d="M222 370h-85q14 69 72 108t144 39q113 0 157 -74h22q69 74 170 74q92 0 145.5 -61.5t53.5 -158.5q0 -13 -2 -43h-379q-2 -30 -2 -46q1 -67 39 -107t103 -40q87 0 124 78h86q-21 -70 -78 -111t-140 -41q-58 0 -105 25.5t-75 71.5h-25q-82 -97 -205 -97q-81 0 -126.5 43.5 t-45.5 108.5q0 83 57.5 130.5t153.5 47.5h171q7 37 7 51q0 34 -28 54.5t-81 20.5t-87 -20t-41 -53zM261 61q65 0 114 43.5t59 107.5l7 42h-146q-62 0 -100 -27t-38 -81q0 -40 27 -62.5t77 -22.5zM695 443q-60 0 -101.5 -32t-60.5 -92h282q-2 56 -32 90t-88 34z" unicode="æ" glyph-name="ae"/>
<glyph horiz-adv-x="545" d="M450 152h86q-19 -76 -78.5 -120.5t-147.5 -44.5h-12l-30 -53h13q13 9 31 9q25 0 41 -18.5t16 -50.5q0 -41 -27.5 -67.5t-73.5 -26.5q-38 0 -61.5 19.5t-24.5 49.5h54q6 -23 35 -23q18 0 30 11.5t12 31.5q0 14 -9.5 22.5t-24.5 8.5q-19 0 -30 -11h-51l59 104 q-72 15 -117.5 71.5t-45.5 140.5q0 132 71.5 222t193.5 90q81 0 134.5 -44.5t63.5 -114.5h-85q-9 40 -38.5 62.5t-78.5 22.5q-81 0 -128.5 -70t-47.5 -164q0 -69 37 -108.5t100 -39.5q50 0 85 24t49 67z" unicode="ç" glyph-name="ccedilla"/>
<glyph horiz-adv-x="562" d="M447 139h86q-20 -71 -78 -111.5t-142 -40.5q-93 0 -156 60.5t-63 160.5q0 134 71.5 221.5t196.5 87.5q94 0 148 -62t54 -159q0 -13 -2 -43h-380q-3 -19 -3 -41q0 -69 38.5 -110.5t104.5 -41.5q92 0 125 79zM358 443q-61 0 -102 -31.5t-60 -87.5h282q-2 54 -32.5 86.5 t-87.5 32.5zM360 582l-83 145h98l59 -145h-74z" unicode="è" glyph-name="egrave"/>
<glyph horiz-adv-x="562" d="M447 139h86q-20 -71 -78 -111.5t-142 -40.5q-93 0 -156 60.5t-63 160.5q0 134 71.5 221.5t196.5 87.5q94 0 148 -62t54 -159q0 -13 -2 -43h-380q-3 -19 -3 -41q0 -69 38.5 -110.5t104.5 -41.5q92 0 125 79zM358 443q-61 0 -102 -31.5t-60 -87.5h282q-2 54 -32.5 86.5 t-87.5 32.5zM540 727l-135 -145h-79l111 145h103z" unicode="é" glyph-name="eacute"/>
<glyph horiz-adv-x="562" d="M447 139h86q-20 -71 -78 -111.5t-142 -40.5q-93 0 -156 60.5t-63 160.5q0 134 71.5 221.5t196.5 87.5q94 0 148 -62t54 -159q0 -13 -2 -43h-380q-3 -19 -3 -41q0 -69 38.5 -110.5t104.5 -41.5q92 0 125 79zM358 443q-61 0 -102 -31.5t-60 -87.5h282q-2 54 -32.5 86.5 t-87.5 32.5zM448 727l80 -145h-71l-48 86h-22l-78 -86h-78l133 145h84z" unicode="ê" glyph-name="ecircumflex"/>
<glyph horiz-adv-x="562" d="M447 139h86q-20 -71 -78 -111.5t-142 -40.5q-93 0 -156 60.5t-63 160.5q0 134 71.5 221.5t196.5 87.5q94 0 148 -62t54 -159q0 -13 -2 -43h-380q-3 -19 -3 -41q0 -69 38.5 -110.5t104.5 -41.5q92 0 125 79zM358 443q-61 0 -102 -31.5t-60 -87.5h282q-2 54 -32.5 86.5 t-87.5 32.5zM337 635h-83l16 92h83zM519 635h-83l16 92h83z" unicode="ë" glyph-name="edieresis"/>
<glyph horiz-adv-x="248" d="M190 582l-83 145h98l59 -145h-74zM256 504l-89 -504h-85l88 504h86z" unicode="ì" glyph-name="igrave"/>
<glyph horiz-adv-x="248" d="M403 727l-135 -145h-79l111 145h103zM256 504l-89 -504h-85l88 504h86z" unicode="í" glyph-name="iacute"/>
<glyph horiz-adv-x="248" d="M256 504l-89 -504h-85l88 504h86zM291 727l80 -145h-71l-48 86h-22l-78 -86h-78l133 145h84z" unicode="î" glyph-name="icircumflex"/>
<glyph horiz-adv-x="248" d="M184 635h-83l16 92h83zM366 635h-83l16 92h83zM256 504l-89 -504h-85l88 504h86z" unicode="ï" glyph-name="idieresis"/>
<glyph horiz-adv-x="580" d="M201 609h168q-51 58 -135 116h105q66 -49 120 -116h122l-10 -55h-77q77 -130 77 -267q0 -131 -70.5 -215.5t-192.5 -84.5q-94 0 -154 57.5t-60 149.5q0 122 66.5 204t175.5 82q38 0 69.5 -12.5t45.5 -29.5h22q-23 65 -62 116h-220zM313 61q79 0 126.5 63.5t47.5 149.5 q0 62 -37 98t-98 36q-79 0 -126.5 -63.5t-47.5 -147.5q0 -62 37.5 -99t97.5 -37z" unicode="ð" glyph-name="eth"/>
<glyph horiz-adv-x="613" d="M525 0h-85l51 291q6 34 6 56q0 94 -107 94q-68 0 -115.5 -48t-59.5 -122l-48 -271h-85l89 504h83l-10 -53h22q55 66 154 66q78 0 120.5 -41.5t42.5 -113.5q0 -24 -6 -64zM545 720h52q-23 -132 -114 -132q-28 0 -53 18t-44.5 36t-35.5 18q-38 0 -52 -72h-52 q24 132 114 132q22 0 43 -11.5t33.5 -25t28 -25t28.5 -11.5q39 0 52 73z" unicode="ñ" glyph-name="ntilde"/>
<glyph horiz-adv-x="602" d="M369 517q98 0 163 -59.5t65 -161.5q0 -134 -74.5 -221.5t-200.5 -87.5q-98 0 -163 59.5t-65 162.5q0 133 73.5 220.5t201.5 87.5zM327 61q86 0 135.5 68t49.5 164q0 69 -40.5 109.5t-107.5 40.5q-86 0 -135.5 -68.5t-49.5 -162.5q0 -70 40.5 -110.5t107.5 -40.5zM374 582 l-83 145h98l59 -145h-74z" unicode="ò" glyph-name="ograve"/>
<glyph horiz-adv-x="602" d="M369 517q98 0 163 -59.5t65 -161.5q0 -134 -74.5 -221.5t-200.5 -87.5q-98 0 -163 59.5t-65 162.5q0 133 73.5 220.5t201.5 87.5zM327 61q86 0 135.5 68t49.5 164q0 69 -40.5 109.5t-107.5 40.5q-86 0 -135.5 -68.5t-49.5 -162.5q0 -70 40.5 -110.5t107.5 -40.5zM553 727 l-135 -145h-79l111 145h103z" unicode="ó" glyph-name="oacute"/>
<glyph horiz-adv-x="602" d="M369 517q98 0 163 -59.5t65 -161.5q0 -134 -74.5 -221.5t-200.5 -87.5q-98 0 -163 59.5t-65 162.5q0 133 73.5 220.5t201.5 87.5zM327 61q86 0 135.5 68t49.5 164q0 69 -40.5 109.5t-107.5 40.5q-86 0 -135.5 -68.5t-49.5 -162.5q0 -70 40.5 -110.5t107.5 -40.5zM459 727 l80 -145h-71l-48 86h-22l-78 -86h-78l133 145h84z" unicode="ô" glyph-name="ocircumflex"/>
<glyph horiz-adv-x="602" d="M369 517q98 0 163 -59.5t65 -161.5q0 -134 -74.5 -221.5t-200.5 -87.5q-98 0 -163 59.5t-65 162.5q0 133 73.5 220.5t201.5 87.5zM327 61q86 0 135.5 68t49.5 164q0 69 -40.5 109.5t-107.5 40.5q-86 0 -135.5 -68.5t-49.5 -162.5q0 -70 40.5 -110.5t107.5 -40.5zM523 720 h52q-23 -132 -114 -132q-28 0 -53 18t-44.5 36t-35.5 18q-38 0 -52 -72h-52q24 132 114 132q22 0 43 -11.5t33.5 -25t28 -25t28.5 -11.5q39 0 52 73z" unicode="õ" glyph-name="otilde"/>
<glyph horiz-adv-x="602" d="M369 517q98 0 163 -59.5t65 -161.5q0 -134 -74.5 -221.5t-200.5 -87.5q-98 0 -163 59.5t-65 162.5q0 133 73.5 220.5t201.5 87.5zM327 61q86 0 135.5 68t49.5 164q0 69 -40.5 109.5t-107.5 40.5q-86 0 -135.5 -68.5t-49.5 -162.5q0 -70 40.5 -110.5t107.5 -40.5zM351 635 h-83l16 92h83zM533 635h-83l16 92h83z" unicode="ö" glyph-name="odieresis"/>
<glyph horiz-adv-x="683" d="M440 24h-100v111h100v-111zM440 433h-100v111h100v-111zM645 247h-510v73h510v-73z" unicode="÷" glyph-name="divide"/>
<glyph horiz-adv-x="602" d="M369 517q96 0 158 -56l44 43h70l-81 -79q37 -56 37 -129q0 -134 -74.5 -221.5t-200.5 -87.5q-96 0 -157 54l-42 -41h-70l79 77q-38 55 -38 132q0 133 73.5 220.5t201.5 87.5zM179 212q0 -44 15 -75l275 268q-43 38 -105 38q-86 0 -135.5 -68.5t-49.5 -162.5zM327 61 q86 0 135.5 68t49.5 164q0 41 -15 71l-274 -267q40 -36 104 -36z" unicode="ø" glyph-name="oslash"/>
<glyph horiz-adv-x="599" d="M164 504h85l-51 -291q-6 -32 -6 -52q0 -98 106 -98q67 0 115.5 48t60.5 122l48 271h85l-90 -504h-82l9 53h-22q-55 -66 -154 -66q-77 0 -119.5 42.5t-42.5 115.5q0 21 6 61zM364 582l-83 145h98l59 -145h-74z" unicode="ù" glyph-name="ugrave"/>
<glyph horiz-adv-x="599" d="M164 504h85l-51 -291q-6 -32 -6 -52q0 -98 106 -98q67 0 115.5 48t60.5 122l48 271h85l-90 -504h-82l9 53h-22q-55 -66 -154 -66q-77 0 -119.5 42.5t-42.5 115.5q0 21 6 61zM544 727l-135 -145h-79l111 145h103z" unicode="ú" glyph-name="uacute"/>
<glyph horiz-adv-x="599" d="M164 504h85l-51 -291q-6 -32 -6 -52q0 -98 106 -98q67 0 115.5 48t60.5 122l48 271h85l-90 -504h-82l9 53h-22q-55 -66 -154 -66q-77 0 -119.5 42.5t-42.5 115.5q0 21 6 61zM461 727l80 -145h-71l-48 86h-22l-78 -86h-78l133 145h84z" unicode="û" glyph-name="ucircumflex"/>
<glyph horiz-adv-x="599" d="M164 504h85l-51 -291q-6 -32 -6 -52q0 -98 106 -98q67 0 115.5 48t60.5 122l48 271h85l-90 -504h-82l9 53h-22q-55 -66 -154 -66q-77 0 -119.5 42.5t-42.5 115.5q0 21 6 61zM350 635h-83l16 92h83zM532 635h-83l16 92h83z" unicode="ü" glyph-name="udieresis"/>
<glyph horiz-adv-x="535" d="M179 -200h-88l149 250l-129 454h84l94 -332h27l197 332h89zM519 727l-135 -145h-79l111 145h103z" unicode="ý" glyph-name="yacute"/>
<glyph horiz-adv-x="612" d="M210 727h85l-49 -276h22q21 29 60 47.5t83 18.5q92 0 144 -63t52 -158q0 -77 -27.5 -145.5t-87.5 -116t-141 -47.5q-108 0 -151 75h-22l-46 -262h-85zM343 61q72 0 125 63t53 169q0 67 -33 108.5t-94 41.5q-87 0 -135.5 -71.5t-48.5 -158.5q0 -72 34 -112t99 -40z" unicode="þ" glyph-name="thorn"/>
</font>
</defs>
</svg>
